<svg xmlns="http://www.w3.org/2000/svg" viewBox="0 0 117 34" width="117" height="34" fill="none">
  <g clip-path="url(#a)">
    <mask id="b" width="117" height="34" x="0" y="0" maskUnits="userSpaceOnUse" style="mask-mode: luminance;">
      <path fill="#fff" d="M117 0H0v33.507h117V0Z"></path>
    </mask>
    <g mask="url(#b)">
      <path fill="#000" d="M40.853 9.08c0-.386.186-.576.553-.576h.484c.37 0 .555.193.555.576v6.807h9.415V9.08c0-.386.185-.576.554-.576h.461c.383 0 .576.193.576.576v15.066c0 .385-.193.575-.576.575h-.46c-.37 0-.555-.192-.555-.575v-6.83h-9.415v6.83c0 .385-.186.575-.555.575h-.484c-.37 0-.553-.192-.553-.575V9.08ZM54.807 18.866a5.926 5.926 0 0 1 1.765-4.269 6.118 6.118 0 0 1 1.937-1.28 6.13 6.13 0 0 1 2.412-.473c.863 0 1.664.157 2.412.472a6.252 6.252 0 0 1 1.948 1.281 5.882 5.882 0 0 1 1.778 4.27c0 .846-.158 1.664-.473 2.411a6.038 6.038 0 0 1-3.253 3.254 6.081 6.081 0 0 1-2.389.472 6.198 6.198 0 0 1-2.412-.473 6.014 6.014 0 0 1-1.948-1.304 6.064 6.064 0 0 1-1.305-1.949 6.13 6.13 0 0 1-.472-2.412Zm1.615 0c0 .659.115 1.274.345 1.848.23.574.55 1.072.957 1.493.407.42.889.754 1.443.999a4.341 4.341 0 0 0 1.777.366c.633 0 1.218-.122 1.766-.366a4.607 4.607 0 0 0 1.431-1c.407-.42.727-.918.957-1.492a4.91 4.91 0 0 0 .346-1.848c0-.658-.115-1.243-.346-1.803a4.5 4.5 0 0 0-.957-1.457 4.485 4.485 0 0 0-1.431-.976 4.38 4.38 0 0 0-1.766-.355 4.509 4.509 0 0 0-3.22 1.33 4.5 4.5 0 0 0-.957 1.458 4.684 4.684 0 0 0-.345 1.803ZM68.418 9.08c0-.386.186-.576.555-.576h.44c.383 0 .575.193.575.576V21.7c0 1.03.4 1.592 1.2 1.686.321.047.483.217.483.508v.346c0 .385-.2.576-.6.576-.829 0-1.48-.25-1.948-.75-.47-.499-.703-1.197-.703-2.088V9.08h-.002ZM72.895 13.697c0-.385.193-.576.576-.576h.438c.369 0 .554.193.554.576v10.451c0 .386-.185.576-.554.576h-.438c-.385 0-.576-.192-.576-.576V13.697ZM76.398 13.768c-.047-.43.153-.647.6-.647h.416c.338 0 .515.162.531.484l1.107 8.167c.014.138.024.284.024.44 0 .154.007.29.023.415 0 .155.007.301.024.44h.047c.077-.139.146-.285.207-.44.06-.122.127-.26.195-.416.07-.152.14-.3.218-.44l4.293-8.145c.153-.307.4-.46.738-.46h.576c.338 0 .515.153.531.46l1.13 8.146c.015.138.027.284.036.44.007.152.019.29.035.415.017.155.024.301.024.44h.047c.077-.139.146-.285.207-.44.06-.122.127-.256.197-.404.068-.146.141-.296.219-.449l4.245-8.166c.153-.322.4-.485.738-.485h.508c.214 0 .353.06.416.174.061.116.038.273-.07.473l-5.583 10.475c-.153.322-.4.484-.738.484h-.715c-.355 0-.538-.162-.552-.484l-1.178-7.777c-.03-.138-.05-.28-.059-.427a4.937 4.937 0 0 0-.035-.405 3.518 3.518 0 0 1-.024-.416h-.047c-.06.139-.122.278-.183.416-.061.125-.132.259-.207.405-.078.145-.153.289-.23.427l-4.154 7.777c-.153.322-.407.484-.762.484h-.714c-.355 0-.539-.162-.555-.484L76.4 13.77ZM97.767 23.666c-.292-.2-.322-.461-.092-.785l.186-.23c.185-.262.446-.292.785-.093.43.339.914.6 1.453.786a4.98 4.98 0 0 0 1.615.277c.707 0 1.276-.17 1.706-.508.43-.338.647-.792.647-1.36 0-.431-.153-.781-.461-1.052a4.544 4.544 0 0 0-1.154-.714 21.803 21.803 0 0 0-1.488-.6 8.637 8.637 0 0 1-1.488-.703 4.122 4.122 0 0 1-1.154-1.015c-.309-.4-.461-.924-.461-1.568 0-.477.091-.914.277-1.314.186-.4.45-.745.797-1.039a3.622 3.622 0 0 1 1.246-.67 5.394 5.394 0 0 1 1.627-.23c.599 0 1.154.084 1.706.253.555.17 1.046.4 1.476.692.292.2.346.453.163.761l-.163.254c-.185.322-.446.376-.785.162a4.617 4.617 0 0 0-2.491-.738c-.724 0-1.284.162-1.686.485-.4.324-.6.761-.6 1.316 0 .447.153.808.461 1.084.308.277.689.52 1.143.726.454.207.95.404 1.488.588a7.73 7.73 0 0 1 1.488.69c.454.278.834.621 1.142 1.028.308.407.461.933.461 1.58 0 .491-.096.938-.289 1.337-.193.4-.461.745-.808 1.045a4.066 4.066 0 0 1-1.246.67c-.491.154-1.031.23-1.63.23-.799 0-1.553-.108-2.277-.346a6.215 6.215 0 0 1-1.709-.784Z"></path>
    </g>
  </g>
  <defs>
    <clipPath id="a">
      <path fill="#fff" d="M0 0h117v33.507H0z"></path>
    </clipPath>
  </defs>
</svg>
