<svg xmlns="http://www.w3.org/2000/svg" viewBox="0 0 117 34" width="117" height="34" fill="none"><g clip-path="url(#a)"><mask id="b" width="117" height="34" x="0" y="0" maskUnits="userSpaceOnUse" style="mask-mode: luminance;"><path fill="#fff" d="M117 0H0v33.507h117V0Z"></path></mask><g mask="url(#b)"><path fill="#A2DFFF" d="M16.754 0C7.5 0 0 7.501 0 16.754c0 9.252 7.501 16.753 16.754 16.753 9.252 0 16.753-7.501 16.753-16.753C33.507 7.5 26.006 0 16.754 0ZM20.1 16.991c-2.647 1.356-5.778 1.523-7.165 1.523-.061 0-.117 0-.172-.002v5.924c0 .689-.336 1.032-1.006 1.032h-1.13c-.67 0-1.007-.343-1.007-1.032V9.069c0-.686.337-1.03 1.007-1.03h1.13c.67 0 1.006.346 1.006 1.035v6.732c.598.01 1.843-.016 3.223-.277 1.3-.247 2.941-.748 4.114-1.765v3.227Zm3.782 7.445c0 .689-.336 1.032-1.006 1.032H21.75c-.672 0-1.009-.343-1.009-1.032V9.069c0-.686.337-1.03 1.009-1.03h1.128c.67 0 1.006.346 1.006 1.035v15.362Z"></path></g></g><defs><clipPath id="a"><path fill="#fff" d="M0 0h117v33.507H0z"></path></clipPath></defs></svg>